<?xml version="1.0" encoding="UTF-8"?>
<svg id="Layer_2" data-name="Layer 2" xmlns="http://www.w3.org/2000/svg" viewBox="0 0 505.07 549.68">
  <defs>
    <style>
      .cls-1 {
        font-family: SVN-GilroyBold, SVN-Gilroy;
        font-size: 156.76px;
        font-weight: 700;
      }

      .cls-1, .cls-2, .cls-3 {
        fill: #fff;
      }

      .cls-4 {
        letter-spacing: 0em;
      }

      .cls-5 {
        letter-spacing: 0em;
      }

      .cls-3 {
        font-family: SVN-GilroyMedium, SVN-Gilroy;
        font-size: 31.95px;
        font-weight: 500;
      }
    </style>
  </defs>
  <g id="Layer_1-2" data-name="Layer 1">
    <g>
      <path class="cls-2" d="M292.7,255.16c8.77-21.65,17.19-42.23,25.37-62.9,1.26-3.18,2.65-4.55,6.24-4.41,7.51,.31,15.04,.09,23.12,.09-.67,2.01-1.06,3.46-1.62,4.84-12.91,31.69-25.88,63.35-38.68,95.08-1.27,3.16-2.66,4.59-6.26,4.4-6.16-.33-12.37-.32-18.54,0-3.51,.18-5.11-1.05-6.39-4.27-9.18-23.05-18.64-45.98-27.79-69.04-1.47-3.69-3.15-5.16-7.37-5.11-22.49,.26-44.99,.12-67.49,.12-1.87,0-3.73,0-5.96,0,0-8.68-.06-17.27-.06-25.95,1.55-.12,64-.06,93.71-.22,3.63-.02,5.41,1.05,6.75,4.53,7.74,20.12,15.75,40.13,23.68,60.17,.23,.58,.53,1.12,1.26,2.66Z"/>
      <path class="cls-2" d="M158.46,276.63c5.61-6.64,10.81-12.78,16.07-19.01,2.81,2.47,5.3,5.09,8.2,7.11,5.07,3.54,10.71,4.76,16.5,1.9,5.76-2.85,6.6-8.33,6.64-14.01,.05-8.36,.01-22.44,.01-31.07h28.13c0,12.2,1.07,29.96-.27,41.74-1.74,15.3-11.58,24.44-26.69,27.3-14.06,2.66-27.72,1.51-40.02-6.64-3.07-2.04-5.67-4.8-8.58-7.32Z"/>
    </g>
    <circle class="cls-2" cx="222.65" cy="150.49" r="30.59"/>
    <path class="cls-2" d="M365.25,100.23c-.66-7.27-4-13.89-9.42-18.71-5.43-4.84-12.46-7.5-19.79-7.5h-25.67v-14.14c0-15.93-6.24-30.95-17.59-42.29C281.43,6.24,266.41,0,250.48,0s-30.95,6.24-42.29,17.58c-11.34,11.34-17.58,26.36-17.58,42.29v14.14h-25.68c-7.33,0-14.36,2.66-19.8,7.5-5.42,4.83-8.76,11.45-9.41,18.64l-16.8,192.12h9.05l16.72-191.31c.44-4.87,2.73-9.37,6.46-12.68,3.76-3.35,8.65-5.19,13.78-5.19h25.68v11.57l-1.67,1.19c-2.81,2.01-4.48,5.26-4.48,8.71,0,5.9,4.8,10.69,10.69,10.69s10.69-4.8,10.69-10.69c0-3.44-1.68-6.7-4.48-8.71l-1.67-1.19v-11.57h101.59v11.57l-1.67,1.19c-2.81,2.01-4.49,5.26-4.49,8.71,0,5.9,4.8,10.69,10.7,10.69s10.69-4.8,10.69-10.69c0-3.45-1.68-6.7-4.48-8.71l-1.67-1.19v-11.57h25.67c5.12,0,10.02,1.84,13.77,5.19,3.72,3.31,6.02,7.82,6.46,12.69l20.76,191.31h9.04l-20.81-192.05Zm-63.97-26.21h-101.59v-14.14c0-13.51,5.3-26.25,14.92-35.87,9.63-9.62,22.37-14.93,35.88-14.93s26.24,5.3,35.87,14.93c9.63,9.63,14.93,22.37,14.93,35.87v14.14Z"/>
    <text class="cls-3" transform="translate(36.91 503.42)"><tspan x="0" y="0">Nền tảng mua sắm hàng Nhật</tspan><tspan x="116.89" y="38.34">cho người Việt</tspan></text>
    <text class="cls-1" transform="translate(0 443.32)"><tspan class="cls-5" x="0" y="0">J</tspan><tspan class="cls-4" x="88.41" y="0">apavi</tspan></text>
  </g>
</svg>